# xmcd
#
# Track frame offsets:
#	150
#	23219
#	53819
#	69692
#	79940
#	98377
#	113732
#	134165
#	147955
#	159816
#	172128
#	191321
#	229603
#	261173
#	276932
#	290790
#	315819
#	344802
#
# Disc length: 4762 seconds
#
# Revision: 0
# Processed by: cddbd v1.5.1PL2 Copyright (c) Steve Scherf et al.
# Submitted via: dBpowerAMP V4.0
#
DISCID=08129812
DTITLE=Bob Dylan - The Best Of CD2
DYEAR=1900
DGENRE=
TTITLE0=Things have changed
TTITLE1=A hard rain's A-gonna Fall
TTITLE2=It ain't me babel
TTITLE3=Superterranean homesick blues
TTITLE4=Positivley 4th street
TTITLE5=Highway 61 revisited
TTITLE6=Rainy day women #12 and #35
TTITLE7=I want you
TTITLE8=Ill be your baby tonicht
TTITLE9=Quinn the Eskimo I the mighty quinn
TTITLE10=Simple twist of fate
TTITLE11=Hurricaane
TTITLE12=Changing of fate
TTITLE13=License to kill
TTITLE14=Silvio
TTITLE15=Dignity
TTITLE16=Not dark yet
TTITLE17=Blowin in the wind
EXTD=
EXTT0=
EXTT1=
EXTT2=
EXTT3=
EXTT4=
EXTT5=
EXTT6=
EXTT7=
EXTT8=
EXTT9=
EXTT10=
EXTT11=
EXTT12=
EXTT13=
EXTT14=
EXTT15=
EXTT16=
EXTT17=
PLAYORDER=
